<?xml version="1.0" encoding="UTF-8"?>
<svg width="650" height="750" version="1.1" viewBox="0 0 650 750" xmlns="http://www.w3.org/2000/svg" xmlns:cc="http://creativecommons.org/ns#" xmlns:dc="http://purl.org/dc/elements/1.1/" xmlns:rdf="http://www.w3.org/1999/02/22-rdf-syntax-ns#">
 <metadata>
  <rdf:RDF>
   <cc:Work rdf:about="">
    <dc:format>image/svg+xml</dc:format>
    <dc:type rdf:resource="http://purl.org/dc/dcmitype/StillImage"/>
    <dc:title/>
   </cc:Work>
  </rdf:RDF>
 </metadata>
 <g stroke-width="1px">
  <path d="m63.387-0.69016 529.39 0.23806c47.685-0.69281 58.658 23.995 58.908 56.095l-0.0377 522.19c1.4838 43.183-21.963 49.115-43.592 57.765l-260.55 107.63c-22.512 11.409-30.713 5.1009-45.973-0.68612l-276.79-116.59c-20.536-6.1144-25.595-32.088-25.292-64.942l0.49113-518.16c5.3643-29.025 24.444-45.436 63.446-43.528z" fill="#fff" stroke="#fff"/>
  <g stroke="#000">
   <path d="m180.6 497.36v38.814c-6.8391 6.2289-16.464 10.104-27.518 12.773-7.854 1.8238-17.3 0.78998-27.873-2.269-12.081-4.8106-22.045-12.482-27.038-26.869-3.8757-15.99-2.6183-29.945 5.7474-41.083 9.6388-11.276 20.888-19.319 36.128-19.351 14.432-1.4125 26.496 4.0571 37.562 12.423l-13.756 16.604c-7.8124-6.8594-16.733-9.8671-27.157-7.6436-10.004 3.0852-14.928 10.31-16.753 20.06-0.10071 14.318 3.8898 21.434 10.053 24.726 11.164 5.7027 20.505 5.0814 28.592 0.11857v-10.869h-17.468v-17.432z"/>
   <path d="m213.62 547.99h-24.16l37.082-87.543h22.132l37.088 87.543h-24.646l-6.5825-16.358h-34.332l-6.5812 16.358"/>
   <path d="m227.27 513.24 10.164-25.38 10.051 25.38z" fill="#fff"/>
  </g>
  <g stroke="#000">
   <path d="m295.49 547.99v-86.946h24.529l21.171 34.22 21.297-34.22h24.52v86.946h-23.086v-51.414l-22.731 34.817-22.967-34.577v51.174z"/>
   <path d="m473.81 461.05h-69.145v86.946h69.745v-19.704h-46.9v-14.81h41.634v-18.508h-41.634v-14.213h46.3v-19.711"/>
   <path d="m554.72 471.08-11.599 16.484c-6.7869-4.6502-14.185-7.988-22.852-8.6003-3.8067 0.12297-7.7257 0.0129-9.8127 3.7039-1.2965 2.4342-1.3604 5.0056 3.4715 8.122l14.476 4.1809c7.2877 2.0191 14.786 3.9759 18.541 7.0401 5.2139 5.0641 11.842 7.7967 9.932 24.606-1.9723 7.7058-5.2452 14.873-15.311 19.224-11.803 4.9693-23.34 4.0814-34.813 1.792-2.2822 0.26152-10.756-4.123-18.548-7.9954l-5.6201-4.4194 13.042-15.528c7.676 5.9078 15.962 9.7642 25.243 10.272 3.9326 0.61343 7.2777-0.20444 10.405-1.5522 2.9844-3.1148 3.8051-6.1918 0.60048-9.1985-3.5832-2.4586-8.3251-3.7283-13.282-4.7778l-9.5702-2.3889c-8.0071-2.4313-15.742-5.4281-20.578-14.445-2.7098-10.293-2.8047-19.667 3.5922-26.757 7.2923-7.9291 15.839-11.001 25.121-11.228 7.643-0.65273 16.597 0.72151 27.518 5.1362 3.6358 1.7582 6.8813 3.9938 10.045 6.33z"/>
  </g>
  <g stroke="#000">
   <path d="m195.2 103.2h-97.943" fill="none"/>
   <path d="m195.2 103.2h-97.943v287.72h98.763v-39.868h-54.733v-86.733h51.849v-39.866h-51.849v-81.387h53.913z"/>
   <path d="m217.28 103.2v287.72h44.031v-104.4l26.473-0.12445c34.239-1.1895 51.405-18.269 51.788-50.969l0.72866-77.746c-2.229-27.496-6.7354-53.64-53.888-54.478h-69.132"/>
   <path d="m261.31 141.84v106.05l17.522-0.77508c15.976-0.1493 17.09-7.8216 17.043-16.082l-0.0474-69.163c0.3751-13.132-5.1672-21.019-20.301-20.405z" fill="#fff"/>
  </g>
  <g stroke="#000">
   <path d="m359.77 103.2h44.036v287.72h-44.036v-287.72"/>
   <path d="m511.85 212.54h43.204l-0.46509-69.476c-3.6006-23.265-15.227-40.79-49.993-41.767l-31.477-0.2228c-28.473 2.0701-40.942 17.839-44.739 41.032l-1.1049 196.4c0.53981 32.361 13.829 52.413 46.266 53.977l35.862 0.76499c28.158-2.6426 47.544-17.132 46.37-59.385l0.10709-60.907h-43.209l0.0645 64.345c0.0204 10.677-6.3919 15.735-16.318 17.5l-8.568-0.38674c-11.546 0.25936-16.607-8.0518-17.468-21.913l0.74498-174.18c1.2304-12.931 6.8104-19.432 15.489-18.807l7.8575 0.41117c11.817 0.8861 18.352 6.3199 16.941 18.597z"/>
   <path d="m201.13 651.08h252.06l-128.66 42.174z"/>
  </g>
 </g>
</svg>
