<?xml version="1.0" encoding="UTF-8" standalone="no"?>
<svg
   xmlns:dc="http://purl.org/dc/elements/1.1/"
   xmlns:cc="http://creativecommons.org/ns#"
   xmlns:rdf="http://www.w3.org/1999/02/22-rdf-syntax-ns#"
   xmlns:svg="http://www.w3.org/2000/svg"
   xmlns="http://www.w3.org/2000/svg"
   xmlns:sodipodi="http://sodipodi.sourceforge.net/DTD/sodipodi-0.dtd"
   xmlns:inkscape="http://www.inkscape.org/namespaces/inkscape"
   width="650"
   height="750"
   viewBox="0 0 650 750"
   version="1.1"
   id="svg31"
   inkscape:version="1.0.1 (1.0.1+r73)"
   sodipodi:docname="logoEpicGames.svg">
  <defs
     id="defs25">
    <clipPath
       clipPathUnits="userSpaceOnUse"
       id="clipPath20">
      <path
         d="m 0,790.889 900,0 L 900,0 0,0 Z"
         id="path18" />
    </clipPath>
    <clipPath
       clipPathUnits="userSpaceOnUse"
       id="clipPath20-4">
      <path
         d="m 0,790.889 900,0 L 900,0 0,0 Z"
         id="path18-4" />
    </clipPath>
  </defs>
  <sodipodi:namedview
     id="base"
     pagecolor="#ffffff"
     bordercolor="#666666"
     borderopacity="1.0"
     inkscape:pageopacity="0.0"
     inkscape:pageshadow="2"
     inkscape:zoom="1"
     inkscape:cx="354.71525"
     inkscape:cy="406.60828"
     inkscape:document-units="px"
     inkscape:current-layer="layer2"
     inkscape:document-rotation="0"
     showgrid="false"
     units="px"
     inkscape:window-width="1920"
     inkscape:window-height="1043"
     inkscape:window-x="1600"
     inkscape:window-y="0"
     inkscape:window-maximized="1"
     inkscape:snap-global="false" />
  <metadata
     id="metadata28">
    <rdf:RDF>
      <cc:Work
         rdf:about="">
        <dc:format>image/svg+xml</dc:format>
        <dc:type
           rdf:resource="http://purl.org/dc/dcmitype/StillImage" />
        <dc:title />
      </cc:Work>
    </rdf:RDF>
  </metadata>
  <g
     inkscape:groupmode="layer"
     id="layer2"
     inkscape:label="elements">
    <path
       style="fill:#ffffff;stroke:#ffffff;stroke-width:1px;stroke-linecap:butt;stroke-linejoin:miter;stroke-opacity:1"
       d="M 63.386939,-0.69015905 592.77709,-0.45209923 C 640.4623,-1.1449125 651.4352,23.542712 651.68526,55.643398 l -0.0377,522.185092 c 1.48377,43.18325 -21.96309,49.11545 -43.5916,57.76461 L 347.50168,743.2187 c -22.51201,11.40936 -30.713,5.10086 -45.97327,-0.68612 L 24.741293,625.9392 C 4.2050736,619.82483 -0.85353928,593.85102 -0.55044741,560.99756 L -0.05931697,42.838028 C 5.3049459,13.813445 24.38484,-2.5984424 63.386939,-0.69015905 Z"
       id="path165"
       sodipodi:nodetypes="ccccccccccc" />
    <path
       style="fill:#000000;stroke:#000000;stroke-width:1px;stroke-linecap:butt;stroke-linejoin:miter;stroke-opacity:1"
       d="m 180.59943,497.36017 v 38.81377 c -6.83906,6.22889 -16.46397,10.10443 -27.51751,12.77315 -7.85404,1.82384 -17.2995,0.78998 -27.87271,-2.26898 -12.08078,-4.81062 -22.04458,-12.48173 -27.03767,-26.86932 -3.875722,-15.98972 -2.618333,-29.94494 5.74745,-41.08274 9.63877,-11.27572 20.88787,-19.31896 36.12796,-19.35092 14.43217,-1.41246 26.49555,4.05714 37.56215,12.42274 l -13.75608,16.60364 c -7.81242,-6.85944 -16.73251,-9.86713 -27.15696,-7.64364 -10.00424,3.0852 -14.92768,10.31031 -16.75311,20.05973 -0.10071,14.31816 3.88975,21.43411 10.05267,24.72559 11.1643,5.7027 20.50452,5.08141 28.59248,0.11857 v -10.86923 h -17.46752 v -17.43236 z"
       id="path137"
       sodipodi:nodetypes="ccccccccccccccccc" />
    <path
       style="fill:#000000;stroke:#000000;stroke-width:1px;stroke-linecap:butt;stroke-linejoin:miter;stroke-opacity:1"
       d="m 213.62313,547.99314 h -24.15992 l 37.0823,-87.54282 h 22.13196 l 37.08766,87.54282 h -24.64647 l -6.58249,-16.35849 h -34.33189 l -6.58115,16.35849"
       id="path139" />
    <path
       style="fill:#ffffff;stroke:#000000;stroke-width:1px;stroke-linecap:butt;stroke-linejoin:miter;stroke-opacity:1"
       d="m 227.26662,513.24035 10.16392,-25.37977 10.05133,25.37977 z"
       id="path141" />
    <path
       style="fill:#000000;stroke:#000000;stroke-width:1px;stroke-linecap:butt;stroke-linejoin:miter;stroke-opacity:1"
       d="m 295.48539,547.99314 v -86.94593 h 24.52852 l 21.17093,34.21985 21.29692,-34.21985 h 24.52048 v 86.94593 h -23.0863 v -51.41372 l -22.7311,34.81674 -22.96701,-34.57692 v 51.1739 z"
       id="path145" />
    <path
       style="fill:#000000;stroke:#000000;stroke-width:1px;stroke-linecap:butt;stroke-linejoin:miter;stroke-opacity:1"
       d="m 473.81309,461.04721 h -69.14496 v 86.94593 h 69.74544 v -19.704 h -46.9004 v -14.8103 h 41.63414 v -18.50755 h -41.63414 v -14.21342 h 46.29992 v -19.71066"
       id="path147" />
    <path
       style="fill:#000000;stroke:#000000;stroke-width:1px;stroke-linecap:butt;stroke-linejoin:miter;stroke-opacity:1"
       d="m 554.71968,471.08107 -11.59944,16.48373 c -6.78687,-4.65016 -14.18478,-7.98799 -22.85174,-8.60026 -3.80668,0.12297 -7.72568,0.0129 -9.81274,3.70391 -1.29646,2.43422 -1.36039,5.00562 3.47152,8.12195 l 14.47585,4.18089 c 7.28773,2.01907 14.78576,3.97592 18.54114,7.04009 5.21391,5.06414 11.84208,7.79666 9.93205,24.60567 -1.97227,7.7058 -5.24523,14.87257 -15.31089,19.22435 -11.80324,4.9693 -23.34004,4.08135 -34.81308,1.792 -2.28221,0.26152 -10.75624,-4.12295 -18.54785,-7.99538 l -5.62011,-4.41937 13.04166,-15.52844 c 7.67604,5.90775 15.96182,9.76425 25.24293,10.27235 3.93262,0.61343 7.27767,-0.20444 10.40519,-1.55218 2.98443,-3.1148 3.80511,-6.1918 0.60048,-9.19848 -3.58322,-2.45861 -8.32509,-3.72831 -13.28159,-4.77777 l -9.57015,-2.38889 c -8.00711,-2.43134 -15.74199,-5.42813 -20.57849,-14.44525 -2.70977,-10.29316 -2.80472,-19.66676 3.59216,-26.7574 7.29231,-7.9291 15.83913,-11.00122 25.12096,-11.22764 7.64296,-0.65273 16.59697,0.72151 27.51751,5.13617 3.63579,1.75815 6.88128,3.9938 10.04463,6.32995 z"
       id="path149"
       sodipodi:nodetypes="ccccccccccccccccccccccc" />
    <path
       style="fill:none;stroke:#000000;stroke-width:1px;stroke-linecap:butt;stroke-linejoin:miter;stroke-opacity:1"
       d="M 195.20302,103.20382 H 97.2605"
       id="path151" />
    <path
       style="fill:#000000;stroke:#000000;stroke-width:1px;stroke-linecap:butt;stroke-linejoin:miter;stroke-opacity:1"
       d="M 195.20302,103.20382 H 97.2605 v 287.72041 h 98.76281 v -39.86764 h -54.73345 v -86.73275 h 51.84901 v -39.86632 h -51.84901 v -81.38739 h 53.91316 z"
       id="path153" />
    <path
       style="fill:#000000;stroke:#000000;stroke-width:1px;stroke-linecap:butt;stroke-linejoin:miter;stroke-opacity:1"
       d="m 217.27882,103.20288 v 287.72175 h 44.0307 V 286.51971 l 26.47294,-0.12445 c 34.23888,-1.18949 51.40514,-18.26869 51.78774,-50.96864 l 0.72866,-77.74618 c -2.229,-27.49592 -6.73543,-53.64038 -53.88849,-54.47756 h -69.13155"
       id="path155"
       sodipodi:nodetypes="ccccccccc" />
    <path
       style="fill:#ffffff;stroke:#000000;stroke-width:1px;stroke-linecap:butt;stroke-linejoin:miter;stroke-opacity:1"
       d="m 261.30952,141.84078 v 106.04903 l 17.52182,-0.77508 c 15.9759,-0.1493 17.0901,-7.82164 17.04329,-16.0817 l -0.0474,-69.16317 c 0.3751,-13.13218 -5.16723,-21.01928 -20.30058,-20.40511 z"
       id="path157"
       sodipodi:nodetypes="ccccccc" />
    <path
       style="fill:#000000;stroke:#000000;stroke-width:1px;stroke-linecap:butt;stroke-linejoin:miter;stroke-opacity:1"
       d="m 359.76848,103.20302 h 44.03606 V 390.92476 H 359.76848 V 103.20302"
       id="path159" />
    <path
       style="fill:#000000;stroke:#000000;stroke-width:1px;stroke-linecap:butt;stroke-linejoin:miter;stroke-opacity:1"
       d="m 511.84919,212.53987 h 43.2037 l -0.46509,-69.47583 c -3.60063,-23.26496 -15.22705,-40.79013 -49.9927,-41.76686 l -31.47745,-0.2228 c -28.47307,2.07008 -40.94197,17.83941 -44.739,41.0317 l -1.10491,196.40361 c 0.53981,32.36104 13.82894,52.41277 46.26609,53.97737 l 35.86191,0.76499 c 28.15833,-2.64258 47.54362,-17.13224 46.36972,-59.38497 l 0.10709,-60.90687 h -43.20906 l 0.0645,64.34475 c 0.0204,10.67745 -6.39187,15.73461 -16.31785,17.49985 l -8.568,-0.38674 c -11.54575,0.25936 -16.6066,-8.05185 -17.46816,-21.91294 l 0.74498,-174.17746 c 1.23041,-12.93085 6.81045,-19.43157 15.48917,-18.80682 l 7.85752,0.41117 c 11.81659,0.8861 18.35213,6.31991 16.941,18.59692 z"
       id="path161"
       sodipodi:nodetypes="ccccccccccccccccccccc" />
    <path
       style="fill:#000000;stroke:#000000;stroke-width:1px;stroke-linecap:butt;stroke-linejoin:miter;stroke-opacity:1"
       d="M 201.13396,651.08184 H 453.19332 L 324.53788,693.25577 Z"
       id="path163" />
  </g>
</svg>
