<?xml version="1.0" encoding="UTF-8" standalone="no"?>
<svg
   xmlns:dc="http://purl.org/dc/elements/1.1/"
   xmlns:cc="http://creativecommons.org/ns#"
   xmlns:rdf="http://www.w3.org/1999/02/22-rdf-syntax-ns#"
   xmlns:svg="http://www.w3.org/2000/svg"
   xmlns="http://www.w3.org/2000/svg"
   xmlns:sodipodi="http://sodipodi.sourceforge.net/DTD/sodipodi-0.dtd"
   xmlns:inkscape="http://www.inkscape.org/namespaces/inkscape"
   width="750"
   height="650"
   viewBox="0 0 750 650"
   version="1.1"
   id="svg31"
   inkscape:version="1.0.1 (1.0.1+r73)"
   sodipodi:docname="logoYoutube.svg">
  <defs
     id="defs25">
    <clipPath
       clipPathUnits="userSpaceOnUse"
       id="clipPath20">
      <path
         d="M 0,790.889 H 900 V 0 H 0 Z"
         id="path18" />
    </clipPath>
    <clipPath
       clipPathUnits="userSpaceOnUse"
       id="clipPath20-4">
      <path
         d="M 0,790.889 H 900 V 0 H 0 Z"
         id="path18-4" />
    </clipPath>
  </defs>
  <sodipodi:namedview
     id="base"
     pagecolor="#ffffff"
     bordercolor="#666666"
     borderopacity="1.0"
     inkscape:pageopacity="0.0"
     inkscape:pageshadow="2"
     inkscape:zoom="1"
     inkscape:cx="261.2871"
     inkscape:cy="326.29472"
     inkscape:document-units="px"
     inkscape:current-layer="layer3"
     inkscape:document-rotation="0"
     showgrid="false"
     units="px"
     inkscape:window-width="1920"
     inkscape:window-height="1043"
     inkscape:window-x="1600"
     inkscape:window-y="0"
     inkscape:window-maximized="1"
     inkscape:snap-global="false" />
  <metadata
     id="metadata28">
    <rdf:RDF>
      <cc:Work
         rdf:about="">
        <dc:format>image/svg+xml</dc:format>
        <dc:type
           rdf:resource="http://purl.org/dc/dcmitype/StillImage" />
        <dc:title></dc:title>
      </cc:Work>
    </rdf:RDF>
  </metadata>
  <g
     inkscape:groupmode="layer"
     id="layer3"
     inkscape:label="Layer 2">
    <path
       id="path1236"
       style="fill:#ffffff;stroke:#ffffff;stroke-width:1px;stroke-linecap:butt;stroke-linejoin:miter;stroke-opacity:1"
       d="M 371.62305 80.271484 C 291.09649 80.24471 210.95037 85.09381 131.19336 94.900391 C 59.857836 108.46784 13.992219 149.91173 -0.0703125 226.16406 L -0.0703125 398.55664 C 11.150097 476.19782 55.462835 511.85112 112.77734 531.00781 C 293.84396 551.71297 476.49208 549.82938 659.60742 531.00781 C 713.93838 499.58636 754.07723 455.17727 751.56445 371.73438 L 751.56445 232.12891 C 738.75936 150.29108 684.02684 114.3979 614.33594 94.900391 C 533.05622 85.200908 452.14961 80.298259 371.62305 80.271484 z M 307.35352 217.7207 L 481.07031 312.60742 L 307.35352 412.90234 L 307.35352 217.7207 z " />
  </g>
</svg>
