<?xml version="1.0" encoding="UTF-8" standalone="no"?>
<svg
   xmlns:dc="http://purl.org/dc/elements/1.1/"
   xmlns:cc="http://creativecommons.org/ns#"
   xmlns:rdf="http://www.w3.org/1999/02/22-rdf-syntax-ns#"
   xmlns:svg="http://www.w3.org/2000/svg"
   xmlns="http://www.w3.org/2000/svg"
   xmlns:sodipodi="http://sodipodi.sourceforge.net/DTD/sodipodi-0.dtd"
   xmlns:inkscape="http://www.inkscape.org/namespaces/inkscape"
   width="650"
   height="750"
   viewBox="0 0 650 750"
   version="1.1"
   id="svg31"
   inkscape:version="1.0.1 (1.0.1+r73)"
   sodipodi:docname="logoUnreal.svg">
  <defs
     id="defs25">
    <clipPath
       clipPathUnits="userSpaceOnUse"
       id="clipPath20">
      <path
         d="m 0,790.889 900,0 L 900,0 0,0 Z"
         id="path18" />
    </clipPath>
    <clipPath
       clipPathUnits="userSpaceOnUse"
       id="clipPath20-4">
      <path
         d="m 0,790.889 900,0 L 900,0 0,0 Z"
         id="path18-4" />
    </clipPath>
  </defs>
  <sodipodi:namedview
     id="base"
     pagecolor="#ffffff"
     bordercolor="#666666"
     borderopacity="1.0"
     inkscape:pageopacity="0.0"
     inkscape:pageshadow="2"
     inkscape:zoom="1"
     inkscape:cx="35.844928"
     inkscape:cy="372.64101"
     inkscape:document-units="px"
     inkscape:current-layer="g237"
     inkscape:document-rotation="0"
     showgrid="false"
     units="px"
     inkscape:window-width="1920"
     inkscape:window-height="1043"
     inkscape:window-x="1600"
     inkscape:window-y="0"
     inkscape:window-maximized="1"
     inkscape:snap-global="false" />
  <metadata
     id="metadata28">
    <rdf:RDF>
      <cc:Work
         rdf:about="">
        <dc:format>image/svg+xml</dc:format>
        <dc:type
           rdf:resource="http://purl.org/dc/dcmitype/StillImage" />
        <dc:title></dc:title>
      </cc:Work>
    </rdf:RDF>
  </metadata>
  <g
     inkscape:groupmode="layer"
     id="g237"
     inkscape:label="elements copia"
     style="display:inline">
    <path
       style="fill:#ffffff;stroke:#ffffff;stroke-width:5;stroke-linecap:butt;stroke-linejoin:miter;stroke-opacity:1;stroke-miterlimit:4;stroke-dasharray:none"
       d="m 300.62805,193.00377 c -45.21138,13.06192 -88.58707,37.6134 -129.75464,75.98563 -25.35432,24.7893 -49.1667,53.33679 -69.49707,92.12162 -6.498174,17.47698 -10.049372,36.86765 -8.978513,59.25977 33.613623,-54.43132 65.556973,-94.44792 93.779783,-102.35559 13.22464,-2.91346 24.06484,-2.41458 22.97388,15.15883 l 1.85803,131.33891 c -0.62414,9.3395 -4.77661,16.16718 -13.38428,19.82321 -5.74521,0.41936 -11.64279,-0.23472 -17.92822,-3.62124 16.93644,16.3188 30.79407,32.34728 72.31995,50.98486 26.83107,10.29039 51.38632,15.92405 73.2196,15.98804 l 43.19971,-44.12375 41.06103,33.02707 c 24.46196,-16.7516 48.62179,-33.7569 67.11878,-55.51716 15.97833,-20.28511 33.17616,-40.13153 43.50891,-62.44747 -20.04904,21.16996 -41.78174,36.84332 -67.3446,40.01242 -4.24362,-0.33243 -8.72881,-2.3754 -13.61377,-7.24909 l -2.04566,-170.49701 c 15.74058,-26.22149 35.68352,-48.90849 55.7572,-71.48553 -45.72438,9.24828 -84.16191,32.76449 -118.81591,63.68901 -9.2543,-7.50716 -22.59957,-8.68022 -36.88013,-8.40517 10.68377,8.98962 18.25627,18.82698 21.18921,29.92847 l 0.93347,154.06747 c -11.48521,10.95142 -24.47906,19.11941 -40.58435,21.54676 -21.97324,-2.09341 -26.21721,-10.12786 -31.36829,-17.85834 l -1.51208,-177.98056 c -8.09618,4.1461 -15.95329,4.61792 -22.63281,-13.00807 -2.41554,-26.75524 4.92381,-33.04702 10.5476,-42.93764 9.46365,-10.70971 18.25066,-18.43979 26.87317,-25.44545 z"
       id="path233"
       sodipodi:nodetypes="ccccccccccccccccccccccccccccc" />
    <circle
       style="fill:none;stroke:#ffffff;stroke-width:5;stroke-opacity:1;stroke-miterlimit:4;stroke-dasharray:none"
       id="path243"
       cx="311.89017"
       cy="359.03415"
       r="275.01859" />
  </g>
</svg>
