<?xml version="1.0" encoding="UTF-8" standalone="no"?>
<svg
   xmlns:dc="http://purl.org/dc/elements/1.1/"
   xmlns:cc="http://creativecommons.org/ns#"
   xmlns:rdf="http://www.w3.org/1999/02/22-rdf-syntax-ns#"
   xmlns:svg="http://www.w3.org/2000/svg"
   xmlns="http://www.w3.org/2000/svg"
   xmlns:sodipodi="http://sodipodi.sourceforge.net/DTD/sodipodi-0.dtd"
   xmlns:inkscape="http://www.inkscape.org/namespaces/inkscape"
   version="1.1"
   id="svg41117"
   viewBox="0 0 20 20"
   height="20"
   width="20"
   preserveAspectRatio="xMidYMid"
   sodipodi:docname="logoPlayStation.svg"
   inkscape:version="1.0.1 (1.0.1+r74)">
  <sodipodi:namedview
     pagecolor="#ffffff"
     bordercolor="#666666"
     borderopacity="1"
     objecttolerance="10"
     gridtolerance="10"
     guidetolerance="10"
     inkscape:pageopacity="0"
     inkscape:pageshadow="2"
     inkscape:window-width="1528"
     inkscape:window-height="1136"
     id="namedview7"
     showgrid="false"
     inkscape:zoom="26.855777"
     inkscape:cx="10.961204"
     inkscape:cy="13.890024"
     inkscape:window-x="72"
     inkscape:window-y="27"
     inkscape:window-maximized="1"
     inkscape:current-layer="svg41117" />
  <metadata
     id="metadata41126">
    <rdf:RDF>
      <cc:Work
         rdf:about="">
        <dc:format>image/svg+xml</dc:format>
        <dc:type
           rdf:resource="http://purl.org/dc/dcmitype/StillImage" />
        <dc:title></dc:title>
      </cc:Work>
    </rdf:RDF>
  </metadata>
  <defs
     id="defs41119">
    <style
       id="style41121">

      .cls-2 {
        fill: #ffffff;
      }
    </style>
  </defs>
  <path
     id="path-1"
     style="fill:#1f1f1f;fill-opacity:1;fill-rule:evenodd;stroke-width:0.100749"
     d="M 7.4980212,2.1809285 V 16.546146 l 3.2493568,1.031105 V 5.5292642 c 0,-0.5645647 0.251843,-0.9415436 0.657822,-0.811503 0.530129,0.1472581 0.634404,0.6675857 0.634404,1.2326031 v 4.8109697 c 2.025365,0.977793 3.619297,-8.65e-4 3.619297,-2.5830748 0,-2.6492863 -0.932937,-3.8251271 -3.684626,-4.7698437 C 10.892268,3.0436681 8.8795283,2.4373845 7.4980212,2.1809285 Z M 6.8669615,10.864248 2.2080994,12.520705 c 0,0 -1.1273775,0.369731 -1.79026557,0.860894 -0.71726019,0.531941 -0.45534613,1.455359 1.11827647,1.898493 1.6882574,0.556409 3.4015954,0.665992 5.0101068,0.403192 0.1051197,-0.01767 0.2187969,-0.03579 0.3207444,-0.05391 v -1.68952 L 5.2589103,14.523486 C 4.6658,14.736444 3.794052,14.781324 3.3124048,14.623644 2.8312105,14.465964 2.9222894,14.164946 3.5144934,13.952443 l 3.3524681,-1.199742 z m 8.2287675,0.819177 c -0.38268,-0.0028 -0.75645,0.01534 -1.110209,0.05431 -1.415037,0.156773 -2.421326,0.512994 -2.421326,0.512994 l -0.20071,0.06789 v 1.952408 l 3.482535,-1.226503 c 0.593565,-0.213411 1.464919,-0.258685 1.946113,-0.10055 0.4821,0.15768 0.391022,0.458109 -0.202089,0.670612 l -5.226559,1.862089 v 1.881373 l 7.102028,-2.551 c 0,0 0.954507,-0.350584 1.344176,-0.8422 0.389214,-0.491615 0.216611,-1.205741 -1.316233,-1.690107 -1.02016,-0.386716 -2.249687,-0.583064 -3.397726,-0.591305 z m 3.609457,4.454412 c -0.0086,0.0064 -0.01864,0.01207 -0.03011,0.01673 7.85e-4,0.0021 0.0022,0.0044 0.003,0.0064 0.0089,-0.0022 0.01742,-0.0048 0.02223,-0.0118 0.0024,-0.0035 0.0032,-0.0076 0.0049,-0.01141 z m 0.201892,0.309725 c -0.0048,-5.03e-4 -0.0087,-10e-5 -0.0096,0.0038 -5.03e-4,0.0022 -5.03e-4,0.0044 -0.001,0.0067 0.0057,-0.002 0.01131,-0.004 0.01693,-0.0061 -6e-6,-0.0012 -2.01e-4,-0.0025 -2.01e-4,-0.0038 -0.0022,-3.02e-4 -0.0041,-4.03e-4 -0.0061,-6.05e-4 z m -0.732793,0.01141 v 2.02e-4 c 2.01e-4,-9.2e-5 4.02e-4,-9.6e-5 6.04e-4,-2.02e-4 -2.02e-4,6.2e-5 -4.03e-4,-6.3e-5 -6.04e-4,0 z m 0.431136,0.275683 c -0.0025,0.0042 -5.03e-4,2.02e-4 -0.0044,0.0078 -9.44e-4,0.0018 0.0035,-0.0023 0.0039,-0.0041 4.03e-4,-0.0013 2.02e-4,-0.0025 6.06e-4,-0.0038 z m -0.533262,0.112556 c -0.0044,0.0014 0.0055,0.0073 0.0083,0.01102 0.0031,0.0027 0.0062,0.0053 0.0093,0.0081 -1e-6,-0.0048 0,-0.0096 0,-0.01436 -0.0057,-0.0021 -0.01191,-0.0065 -0.01751,-0.0047 z m -0.03188,0.0915 c 10e-4,0.004 9.43e-4,0.0066 0.0024,0.01102 0.002,0.0061 0.0021,-9.44e-4 0.0015,-0.01063 -0.0013,-10e-5 -0.0026,-2.01e-4 -0.0039,-4.03e-4 z m 0.583441,0.596623 c -2.8e-5,3.1e-5 2.01e-4,4.02e-4 2.01e-4,4.02e-4 5.03e-4,9.5e-5 9.44e-4,3.04e-4 0.0014,4.04e-4 -5.04e-4,-3.01e-4 -0.001,-5.04e-4 -0.0015,-7.87e-4 z" />
</svg>
