<?xml version="1.0" encoding="UTF-8"?>
<svg width="20" height="20" version="1.1" xmlns="http://www.w3.org/2000/svg" xmlns:cc="http://creativecommons.org/ns#" xmlns:dc="http://purl.org/dc/elements/1.1/" xmlns:rdf="http://www.w3.org/1999/02/22-rdf-syntax-ns#">
 <metadata>
  <rdf:RDF>
   <cc:Work rdf:about="">
    <dc:format>image/svg+xml</dc:format>
    <dc:type rdf:resource="http://purl.org/dc/dcmitype/StillImage"/>
    <dc:title>Xbox Logo</dc:title>
   </cc:Work>
  </rdf:RDF>
 </metadata>
 <title>Xbox Logo</title>
 <path d="m9.0247 19.935c-1.535-0.14706-3.089-0.69825-4.4239-1.5693-1.1186-0.72952-1.371-1.0299-1.371-1.6286 0-1.2027 1.3224-3.3095 3.5851-5.7106 1.2846-1.3641 3.0744-2.9621 3.2678-2.919 0.37657 0.084073 3.385 3.0186 4.5114 4.4003 1.781 2.1839 2.5994 3.9727 2.1835 4.7701-0.31612 0.60608-2.2782 1.7909-3.7194 2.246-1.1881 0.37518-2.7483 0.53405-4.0334 0.41108zm-7.3058-4.4482c-0.92961-1.4261-1.3993-2.8301-1.6258-4.8607-0.075044-0.67046-0.048638-1.0537 0.16976-2.4303 0.27166-1.7138 1.2483-3.6985 2.4225-4.919 0.49978-0.51877 0.54424-0.53266 1.1538-0.32655 0.73878 0.25012 1.5285 0.79575 2.7536 1.9037l0.71562 0.64707-0.39139 0.4794c-1.8129 2.2256-3.7263 5.3822-4.4466 7.3346-0.39139 1.0607-0.54888 2.126-0.37981 2.5695 0.11348 0.29968 0.00922 0.18805-0.37287-0.39695zm16.316 0.24248c0.09195-0.44836-0.02432-1.2714-0.29644-2.1019-0.5894-1.7983-2.56-5.1437-4.3695-7.4184l-0.56972-0.71609 0.6165-0.56578c0.80455-0.73878 1.3632-1.1811 1.9662-1.557 0.47546-0.29644 1.1552-0.55883 1.4475-0.55883 0.17995 0 0.81428 0.66004 1.3261 1.378 0.79298 1.1116 1.3761 2.4618 1.6716 3.8653 0.19106 0.90785 0.20704 2.8486 0.0308 3.7541-0.1459 0.74295-0.45161 1.7059-0.74805 2.3592-0.22464 0.48936-0.77815 1.44-1.0213 1.7495-0.12506 0.1591-0.12506 0.15887-0.05558-0.18435zm-8.8462-13.258c-0.83512-0.42382-2.1232-0.8789-2.8347-1.0016-0.24919-0.042842-0.67463-0.067161-0.9449-0.053269-0.58732 0.029639-0.56115-9.312e-4 0.38051-0.44582 0.78279-0.36985 1.4359-0.58732 2.3229-0.77352 0.99701-0.20959 2.8718-0.21191 3.853-0.0051678 1.0595 0.22349 2.3076 0.68783 3.0107 1.1209l0.20936 0.1283-0.4794-0.024086c-0.95324-0.048172-2.3423 0.33697-3.8338 1.0623-0.44975 0.21909-0.84068 0.39371-0.8694 0.38908-0.028483-0.0055731-0.3951-0.18412-0.81521-0.39718z" fill="#107c10" stroke-width=".23159"/>
</svg>
