<?xml version="1.0" encoding="UTF-8"?>
<svg width="20" height="20" fill="none" version="1.1" viewBox="0 0 20 20" xmlns="http://www.w3.org/2000/svg" xmlns:cc="http://creativecommons.org/ns#" xmlns:dc="http://purl.org/dc/elements/1.1/" xmlns:rdf="http://www.w3.org/1999/02/22-rdf-syntax-ns#">
 <metadata>
  <rdf:RDF>
   <cc:Work rdf:about="">
    <dc:format>image/svg+xml</dc:format>
    <dc:type rdf:resource="http://purl.org/dc/dcmitype/StillImage"/>
    <dc:title/>
   </cc:Work>
  </rdf:RDF>
 </metadata>
 <path d="m9.9827 0c-5.2624 0-9.5734 4.0506-9.9827 9.1979l5.3691 2.216c0.46882-0.321 1.0256-0.4927 1.5958-0.492 0.05329 0 0.10594 0.0015 0.15782 0.0043l2.388-3.4553v-0.04838c0-2.0792 1.6946-3.7711 3.7776-3.7711s3.7775 1.692 3.7775 3.7711c0 2.0791-1.6945 3.7718-3.7775 3.7718-0.0289 0-0.057-7e-4 -0.0858-0.0014l-3.4057 2.4249c0.00219 0.045 0.00359 0.0899 0.00359 0.1341 0 1.5614-1.2721 2.8314-2.8355 2.8314-1.3723 0-2.5205-0.9783-2.78-2.2731l-3.8403-1.5851c1.1893 4.1975 5.0526 7.2749 9.6382 7.2749 5.5327 0 10.017-4.4777 10.017-10 0-5.5229-4.4846-10-10.017-10zm-3.7052 15.173-1.2304-0.5076c0.21773 0.4534 0.59539 0.8327 1.0963 1.041 1.0826 0.4506 2.3309-0.062 2.7822-1.1437 0.21847-0.5201 0.21976-1.1046 0.0036-1.6257-0.21625-0.5247-0.62492-0.934-1.1489-1.1522-0.52109-0.216-1.079-0.2082-1.5691-0.0235l1.2715 0.5248c0.79859 0.3323 1.1762 1.2477 0.84328 2.0449-0.33227 0.7971-1.2498 1.1743-2.0484 0.842zm9.5279-7.7508c0-1.3853-1.1295-2.5133-2.517-2.5133-1.3882 0-2.5176 1.128-2.5176 2.5133 0 1.3854 1.1294 2.5127 2.5176 2.5127 1.3875 0 2.517-1.1273 2.517-2.5127zm-4.4039-0.00425c0-1.0424 0.8469-1.8873 1.8906-1.8873 1.0444 0 1.8913 0.84487 1.8913 1.8873 0 1.0424-0.8469 1.8874-1.8914 1.8874-1.0436 0-1.8905-0.84502-1.8905-1.8874z" fill="#F4F4F4"/>
</svg>
