<?xml version="1.0" encoding="UTF-8"?>
<svg width="20" height="20" preserveAspectRatio="xMidYMid" version="1.1" viewBox="0 0 20 20" xmlns="http://www.w3.org/2000/svg" xmlns:cc="http://creativecommons.org/ns#" xmlns:dc="http://purl.org/dc/elements/1.1/" xmlns:rdf="http://www.w3.org/1999/02/22-rdf-syntax-ns#">
 <metadata>
  <rdf:RDF>
   <cc:Work rdf:about="">
    <dc:format>image/svg+xml</dc:format>
    <dc:type rdf:resource="http://purl.org/dc/dcmitype/StillImage"/>
    <dc:title/>
   </cc:Work>
  </rdf:RDF>
 </metadata>
 <defs>
  <style>.cls-2 {
        fill: #ffffff;
      }</style>
 </defs>
 <path d="m7.498 2.1809v14.365l3.2494 1.0311v-12.048c0-0.56456 0.25184-0.94154 0.65782-0.8115 0.53013 0.14726 0.6344 0.66759 0.6344 1.2326v4.811c2.0254 0.97779 3.6193-8.65e-4 3.6193-2.5831 0-2.6493-0.93294-3.8251-3.6846-4.7698-1.082-0.36475-3.0947-0.97103-4.4763-1.2275zm-0.63106 8.6833-4.6589 1.6565s-1.1274 0.36973-1.7903 0.86089c-0.71726 0.53194-0.45535 1.4554 1.1183 1.8985 1.6883 0.55641 3.4016 0.66599 5.0101 0.40319 0.10512-0.01767 0.2188-0.03579 0.32074-0.05391v-1.6895l-1.6081 0.58363c-0.59311 0.21296-1.4649 0.25784-1.9465 0.10016-0.48119-0.15768-0.39012-0.4587 0.20209-0.6712l3.3525-1.1997zm8.2288 0.81918c-0.38268-0.0028-0.75645 0.01534-1.1102 0.05431-1.415 0.15677-2.4213 0.51299-2.4213 0.51299l-0.20071 0.06789v1.9524l3.4825-1.2265c0.59356-0.21341 1.4649-0.25868 1.9461-0.10055 0.4821 0.15768 0.39102 0.45811-0.20209 0.67061l-5.2266 1.8621v1.8814l7.102-2.551s0.95451-0.35058 1.3442-0.8422c0.38921-0.49162 0.21661-1.2057-1.3162-1.6901-1.0202-0.38672-2.2497-0.58306-3.3977-0.5913zm3.6095 4.4544c-0.0086 0.0064-0.01864 0.01207-0.03011 0.01673 7.85e-4 0.0021 0.0022 0.0044 3e-3 0.0064 0.0089-0.0022 0.01742-0.0048 0.02223-0.0118 0.0024-0.0035 0.0032-0.0076 0.0049-0.01141zm0.20189 0.30972c-0.0048-5.03e-4 -0.0087-1e-4 -0.0096 0.0038-5.03e-4 0.0022-5.03e-4 0.0044-1e-3 0.0067 0.0057-2e-3 0.01131-4e-3 0.01693-0.0061-6e-6 -0.0012-2.01e-4 -0.0025-2.01e-4 -0.0038-0.0022-3.02e-4 -0.0041-4.03e-4 -0.0061-6.05e-4zm-0.73279 0.01141v2.02e-4c2.01e-4 -9.2e-5 4.02e-4 -9.6e-5 6.04e-4 -2.02e-4 -2.02e-4 6.2e-5 -4.03e-4 -6.3e-5 -6.04e-4 0zm0.43114 0.27568c-0.0025 0.0042-5.03e-4 2.02e-4 -0.0044 0.0078-9.44e-4 0.0018 0.0035-0.0023 0.0039-0.0041 4.03e-4 -0.0013 2.02e-4 -0.0025 6.06e-4 -0.0038zm-0.53326 0.11256c-0.0044 0.0014 0.0055 0.0073 0.0083 0.01102 0.0031 0.0027 0.0062 0.0053 0.0093 0.0081-1e-6 -0.0048 0-0.0096 0-0.01436-0.0057-0.0021-0.01191-0.0065-0.01751-0.0047zm-0.03188 0.0915c1e-3 4e-3 9.43e-4 0.0066 0.0024 0.01102 2e-3 0.0061 0.0021-9.44e-4 0.0015-0.01063-0.0013-1e-4 -0.0026-2.01e-4 -0.0039-4.03e-4zm0.58344 0.59662c-2.8e-5 3.1e-5 2.01e-4 4.02e-4 2.01e-4 4.02e-4 5.03e-4 9.5e-5 9.44e-4 3.04e-4 0.0014 4.04e-4 -5.04e-4 -3.01e-4 -1e-3 -5.04e-4 -0.0015-7.87e-4z" fill="#1f1f1f" fill-rule="evenodd" stroke-width=".10075"/>
</svg>
