<?xml version="1.0" encoding="UTF-8" standalone="no"?>
<svg
   xmlns:dc="http://purl.org/dc/elements/1.1/"
   xmlns:cc="http://creativecommons.org/ns#"
   xmlns:rdf="http://www.w3.org/1999/02/22-rdf-syntax-ns#"
   xmlns:svg="http://www.w3.org/2000/svg"
   xmlns="http://www.w3.org/2000/svg"
   xmlns:sodipodi="http://sodipodi.sourceforge.net/DTD/sodipodi-0.dtd"
   xmlns:inkscape="http://www.inkscape.org/namespaces/inkscape"
   width="20"
   height="20"
   version="1.1"
   id="svg6"
   sodipodi:docname="logoXbox.svg"
   inkscape:version="1.0.1 (1.0.1+r74)">
  <metadata
     id="metadata12">
    <rdf:RDF>
      <cc:Work
         rdf:about="">
        <dc:format>image/svg+xml</dc:format>
        <dc:type
           rdf:resource="http://purl.org/dc/dcmitype/StillImage" />
        <dc:title>Xbox Logo</dc:title>
      </cc:Work>
    </rdf:RDF>
  </metadata>
  <defs
     id="defs10" />
  <sodipodi:namedview
     pagecolor="#ffffff"
     bordercolor="#666666"
     borderopacity="1"
     objecttolerance="10"
     gridtolerance="10"
     guidetolerance="10"
     inkscape:pageopacity="0"
     inkscape:pageshadow="2"
     inkscape:window-width="1528"
     inkscape:window-height="1136"
     id="namedview8"
     showgrid="false"
     inkscape:zoom="33.409091"
     inkscape:cx="10.482687"
     inkscape:cy="8.6996532"
     inkscape:window-x="72"
     inkscape:window-y="27"
     inkscape:window-maximized="1"
     inkscape:current-layer="svg6" />
  <title
     id="title2">Xbox Logo</title>
  <path
     fill="#107c10"
     d="M 9.0247477,19.935109 C 7.4897491,19.788048 5.9357595,19.236856 4.6008578,18.365834 3.4822635,17.636316 3.2298261,17.33594 3.2298261,16.737272 c 0,-1.202663 1.3223967,-3.309465 3.5850605,-5.710622 1.2846475,-1.3640826 3.0743987,-2.9620758 3.2677784,-2.9189997 0.376571,0.084073 3.384965,3.0185847 4.511433,4.4002687 1.780951,2.183923 2.599401,3.972748 2.18346,4.770123 -0.316125,0.606079 -2.278181,1.790909 -3.719385,2.245989 -1.188073,0.375181 -2.748315,0.534054 -4.0334253,0.411078 z M 1.7189125,15.486901 C 0.78929928,14.060752 0.31962832,12.656834 0.0931302,10.626226 0.0180858,9.9557645 0.04449219,9.5724776 0.26288802,8.1958878 0.53454653,6.4821 1.5111745,4.4973467 2.6853509,3.2768517 3.1851288,2.7580827 3.2295951,2.7441875 3.8391469,2.9503052 4.577929,3.2004262 5.3676624,3.7460586 6.5927892,4.8540002 L 7.3084124,5.5010712 6.9170203,5.9804688 C 5.1041092,8.2060784 3.1906867,11.362692 2.4704327,13.315021 c -0.3913921,1.060696 -0.548876,2.126025 -0.3798122,2.569526 0.1134805,0.299682 0.00922,0.188052 -0.3728651,-0.396952 z M 18.03534,15.729379 C 18.12729,15.281015 18.01102,14.457933 17.738901,13.627441 17.149496,11.82912 15.178871,8.4837579 13.369435,6.2090512 l -0.56972,-0.7160853 0.616501,-0.5657827 c 0.804554,-0.7387811 1.363157,-1.1811246 1.966226,-1.5570002 0.47546,-0.2964385 1.155186,-0.5588335 1.447456,-0.5588335 0.179948,0 0.814281,0.6600391 1.326102,1.3779788 0.792975,1.1116471 1.376126,2.4618344 1.671639,3.8652873 0.191064,0.9078458 0.207044,2.8485944 0.0308,3.7541244 -0.145904,0.74295 -0.451608,1.705915 -0.748046,2.359238 -0.224645,0.489356 -0.778153,1.440046 -1.021326,1.749455 -0.12506,0.159104 -0.12506,0.158872 -0.05558,-0.184348 z M 9.1891796,2.4718338 C 8.3540548,2.0480184 7.0659347,1.5929378 6.3544801,1.4701937 6.1052863,1.4273517 5.6798496,1.4030327 5.4095803,1.4169249 4.82226,1.4465637 4.8484303,1.4159937 5.7900876,0.97110791 6.5728729,0.6012533 7.2259649,0.38378767 8.1129663,0.19758716 9.1099746,-0.01200519 10.98472,-0.01432056 11.965981,0.19241937 13.025518,0.415907 14.273574,0.88025007 14.97669,1.313329 L 15.18605,1.441632 14.706653,1.417546 C 13.753416,1.3693742 12.364321,1.7545133 10.872861,2.4798632 10.423107,2.6989501 10.032179,2.8735717 10.00346,2.8689399 9.9749768,2.8633668 9.6083633,2.6848238 9.1882525,2.4717578 Z"
     id="path4"
     style="stroke-width:0.231593" />
</svg>
