<?xml version="1.0" encoding="UTF-8" standalone="no"?>
<svg
   xmlns:dc="http://purl.org/dc/elements/1.1/"
   xmlns:cc="http://creativecommons.org/ns#"
   xmlns:rdf="http://www.w3.org/1999/02/22-rdf-syntax-ns#"
   xmlns:svg="http://www.w3.org/2000/svg"
   xmlns="http://www.w3.org/2000/svg"
   xmlns:sodipodi="http://sodipodi.sourceforge.net/DTD/sodipodi-0.dtd"
   xmlns:inkscape="http://www.inkscape.org/namespaces/inkscape"
   width="20"
   height="20"
   viewBox="0 0 20 20"
   version="1.1"
   id="svg9"
   sodipodi:docname="logoApple.svg"
   inkscape:version="1.0.1 (1.0.1+r74)">
  <metadata
     id="metadata15">
    <rdf:RDF>
      <cc:Work
         rdf:about="">
        <dc:format>image/svg+xml</dc:format>
        <dc:type
           rdf:resource="http://purl.org/dc/dcmitype/StillImage" />
        <dc:title>Black Logo Square</dc:title>
      </cc:Work>
    </rdf:RDF>
  </metadata>
  <defs
     id="defs13">
    <clipPath
       clipPathUnits="userSpaceOnUse"
       id="clipPath1422">
      <rect
         style="opacity:0.438962;fill:#ffffff;stroke:#41ffff;stroke-width:0.0474361;stroke-linecap:round;stroke-linejoin:round;stroke-miterlimit:4;stroke-dasharray:none;stroke-dashoffset:300.69;stroke-opacity:1;paint-order:markers fill stroke"
         id="rect1424"
         width="18.562607"
         height="19.111534"
         x="19.007273"
         y="15.994018" />
    </clipPath>
  </defs>
  <sodipodi:namedview
     pagecolor="#ffffff"
     bordercolor="#666666"
     borderopacity="1"
     objecttolerance="10"
     gridtolerance="10"
     guidetolerance="10"
     inkscape:pageopacity="0"
     inkscape:pageshadow="2"
     inkscape:window-width="1528"
     inkscape:window-height="1136"
     id="namedview11"
     showgrid="false"
     inkscape:zoom="18.409091"
     inkscape:cx="10"
     inkscape:cy="10"
     inkscape:window-x="72"
     inkscape:window-y="27"
     inkscape:window-maximized="1"
     inkscape:current-layer="svg9"
     inkscape:document-rotation="0" />
  <!-- Generator: Sketch 61 (89581) - https://sketch.com -->
  <title
     id="title2">Black Logo Square</title>
  <desc
     id="desc4">Created with Sketch.</desc>
  <g
     id="Black-Logo-Square"
     stroke="none"
     stroke-width="1"
     fill="none"
     fill-rule="evenodd"
     transform="matrix(1.0721981,0,0,1.0362093,-20.199186,-16.492678)"
     style="opacity:1"
     clip-path="url(#clipPath1422)">
    <rect
       id="Rectangle"
       fill="#ffffff"
       x="6"
       y="6"
       width="44"
       height="44" />
    <path
       d="m 28.222656,20.384615 c 0.832031,0 1.875,-0.579784 2.496094,-1.352829 0.5625,-0.700572 0.972656,-1.678957 0.972656,-2.657342 0,-0.132867 -0.01172,-0.265735 -0.03516,-0.374444 -0.925781,0.03624 -2.039063,0.640178 -2.707031,1.44946 -0.527344,0.61602 -1.007813,1.582326 -1.007813,2.57279 0,0.144946 0.02344,0.289892 0.03516,0.338208 0.05859,0.01208 0.152344,0.02416 0.246094,0.02416 z M 25.292969,35 c 1.136718,0 1.640625,-0.785124 3.058593,-0.785124 1.441407,0 1.757813,0.760966 3.023438,0.760966 1.242187,0 2.074219,-1.183725 2.859375,-2.343293 0.878906,-1.328671 1.242187,-2.633185 1.265625,-2.693579 -0.08203,-0.02416 -2.460938,-1.026701 -2.460938,-3.841068 0,-2.439924 1.875,-3.539097 1.980469,-3.623649 -1.242187,-1.835982 -3.128906,-1.884298 -3.644531,-1.884298 -1.394531,0 -2.53125,0.869676 -3.246094,0.869676 -0.773437,0 -1.792969,-0.82136 -3,-0.82136 -2.296875,0 -4.628906,1.95677 -4.628906,5.652892 0,2.294978 0.867187,4.722823 1.933594,6.293071 C 23.347656,33.912905 24.144531,35 25.292969,35 Z"
       id=""
       fill="#000000"
       fill-rule="nonzero" />
  </g>
</svg>
