<?xml version="1.0" encoding="UTF-8"?>
<svg width="20" height="25.5" version="1.1" viewBox="0 0 20 25.5" xmlns="http://www.w3.org/2000/svg" xmlns:cc="http://creativecommons.org/ns#" xmlns:dc="http://purl.org/dc/elements/1.1/" xmlns:rdf="http://www.w3.org/1999/02/22-rdf-syntax-ns#">
 <metadata>
  <rdf:RDF>
   <cc:Work rdf:about="">
    <dc:format>image/svg+xml</dc:format>
    <dc:type rdf:resource="http://purl.org/dc/dcmitype/StillImage"/>
    <dc:title/>
   </cc:Work>
  </rdf:RDF>
 </metadata>
 <g stroke="#000" stroke-width=".042558px">
  <path d="m3.8064 17.018v1.6519c-0.29106 0.26508-0.70068 0.43001-1.1711 0.5436-0.33425 0.0775-0.73624 0.03373-1.1862-0.09647-0.51413-0.20482-0.93818-0.53119-1.1507-1.1435-0.16494-0.68049-0.11142-1.2744 0.2446-1.7484 0.41021-0.47989 0.88895-0.8222 1.5375-0.82354 0.61421-0.0601 1.1276 0.17266 1.5986 0.52868l-0.58543 0.70664c-0.33248-0.29194-0.7121-0.41994-1.1558-0.32531-0.42576 0.13127-0.6353 0.43879-0.71298 0.8537-0.00422 0.60937 0.16554 0.91219 0.42783 1.0523 0.47513 0.24278 0.87263 0.21615 1.2168 0.0053v-0.46262h-0.74339v-0.74188z"/>
  <path d="m5.2118 19.173h-1.0282l1.5782-3.7256h0.9419l1.5784 3.7256h-1.0489l-0.28014-0.69617h-1.4611l-0.28008 0.69617"/>
  <path d="m5.7925 17.694 0.43256-1.0801 0.42776 1.0801z" fill="#fff"/>
  <g>
   <path d="m8.6957 19.173v-3.7003h1.0439l0.90099 1.4563 0.90636-1.4563h1.0436v3.7003h-0.98252v-2.1881l-0.96739 1.4817-0.97743-1.4715v2.1778z"/>
   <path d="m16.285 15.473h-2.9427v3.7003h2.9682v-0.83854h-1.996v-0.6303h1.7719v-0.78767h-1.7719v-0.60489h1.9704v-0.83886"/>
   <path d="m19.728 15.9-0.49365 0.70152c-0.28883-0.19796-0.60368-0.33997-0.97253-0.36601-0.16185 0.0053-0.32879 5.53e-4 -0.4176 0.15764-0.05509 0.1036-0.05799 0.21299 0.14762 0.34564l0.61606 0.17793c0.31015 0.08594 0.62924 0.16923 0.78906 0.29961 0.22195 0.21562 0.50398 0.33182 0.42268 1.0472-0.08383 0.32795-0.22327 0.63296-0.6516 0.81817-0.50232 0.21141-0.9933 0.17371-1.4816 0.07618-0.09727 0.01061-0.45777-0.17556-0.78938-0.34028l-0.23909-0.18821 0.55501-0.66085c0.32668 0.25148 0.67933 0.41554 1.0743 0.43716 0.16739 0.02636 0.30973-0.0079 0.44282-0.06617 0.12706-0.1326 0.16185-0.2636 0.02636-0.39145-0.15263-0.10466-0.35428-0.1587-0.56524-0.20324l-0.40726-0.10175c-0.34079-0.10333-0.66997-0.23091-0.87579-0.61477-0.11519-0.43805-0.11942-0.83696 0.15288-1.1387 0.31036-0.33746 0.67408-0.46818 1.0691-0.47783 0.32526-0.02768 0.70632 0.03085 1.1711 0.21852 0.15474 0.07486 0.29286 0.17002 0.42748 0.2694z"/>
  </g>
  <path d="m4.4279 0.24338h-4.1683" fill="none"/>
  <path d="m4.4279 0.24338h-4.1683v12.245h4.2032v-1.6967h-2.3294v-3.6912h2.2066v-1.6966h-2.2066v-3.4637h2.2944z"/>
  <path d="m5.3674 0.24333v12.245h1.8739v-4.4433l1.1266-0.00527c1.4571-0.050614 2.1877-0.77749 2.204-2.1692l0.031-3.3087c-0.094871-1.1702-0.28665-2.2828-2.2934-2.3185h-2.9421"/>
  <path d="m7.2413 1.8877v4.5132l0.74569-0.03295c0.67991-0.0052721 0.72732-0.33288 0.72533-0.68442l-0.0020087-2.9435c0.01608-0.55889-0.2199-0.89453-0.86395-0.86841z" fill="#fff"/>
  <g>
   <path d="m11.431 0.24333h1.8741v12.245h-1.8741v-12.245"/>
   <path d="m17.904 4.8965h1.8387l-0.02109-2.9568c-0.15315-0.99011-0.64801-1.7359-2.1276-1.7775l-1.3396-0.010544c-1.2118 0.088043-1.7424 0.75922-1.904 1.7463l-0.04692 8.3586c0.02373 1.3772 0.58854 2.2306 1.969 2.2972l1.5262 0.03242c1.1984-0.11256 2.0234-0.72912 1.9734-2.5273l0.0053-2.5921h-1.8389l0.0026 2.7384c9.5e-4 0.4544-0.27201 0.66963-0.69446 0.74475l-0.36469-0.01582c-0.49135 0.01055-0.70674-0.34268-0.74341-0.9326l0.03163-7.4127c0.05245-0.55032 0.28983-0.82697 0.65919-0.80037l0.3344 0.018452c0.5029 0.037696 0.78103 0.26895 0.72098 0.79144z"/>
   <path d="m4.6803 23.56h10.727l-5.4753 1.7948z"/>
  </g>
 </g>
</svg>
