<?xml version="1.0" encoding="UTF-8"?>
<svg width="20" height="20" preserveAspectRatio="xMidYMid" version="1.1" viewBox="0 0 2.0958 2.096" xmlns="http://www.w3.org/2000/svg" xmlns:cc="http://creativecommons.org/ns#" xmlns:dc="http://purl.org/dc/elements/1.1/" xmlns:rdf="http://www.w3.org/1999/02/22-rdf-syntax-ns#">
 <metadata>
  <rdf:RDF>
   <cc:Work rdf:about="">
    <dc:format>image/svg+xml</dc:format>
    <dc:type rdf:resource="http://purl.org/dc/dcmitype/StillImage"/>
    <dc:title/>
   </cc:Work>
  </rdf:RDF>
 </metadata>
 <g stroke-width=".0080303">
  <path d="m2.0734 1.076c0-0.086197-0.00699-0.1491-0.022131-0.21433h-0.98429v0.38905h0.57775c-0.011644 0.096685-0.074545 0.24229-0.21433 0.34013l-0.00196 0.013025 0.31121 0.24109 0.021561 0.00216c0.19802-0.18289 0.31218-0.45197 0.31218-0.77113" fill="#4285f4"/>
  <path d="m1.067 2.101c0.28305 0 0.52068-0.093191 0.69424-0.25393l-0.33082-0.25627c-0.088526 0.061737-0.20734 0.10484-0.36343 0.10484-0.27723 0-0.51252-0.18287-0.5964-0.43564l-0.012294 0.00105-0.3236 0.25044-0.004232 0.011764c0.17239 0.34246 0.52651 0.57776 0.93653 0.57776" fill="#34a853"/>
  <path d="m0.47059 1.26c-0.022131-0.06523-0.03494-0.13513-0.03494-0.20734 0-0.072224 0.012808-0.14211 0.033775-0.20734l-5.8625e-4 -0.013892-0.32766-0.25446-0.01072 0.0050995c-0.071052 0.14211-0.11182 0.3017-0.11182 0.4706 0 0.1689 0.04077 0.32848 0.11182 0.47059l0.34013-0.26325" fill="#fbbc05"/>
  <path d="m1.067 0.40968c0.19685 0 0.32964 0.085033 0.40536 0.15609l0.29587-0.28888c-0.18171-0.1689-0.41818-0.27257-0.70123-0.27257-0.41003 0-0.76414 0.2353-0.93653 0.57775l0.33897 0.26326c0.085041-0.25277 0.32034-0.43565 0.59757-0.43565" fill="#eb4335"/>
 </g>
</svg>
