<?xml version="1.0" encoding="UTF-8" standalone="no"?>
<svg
   xmlns:dc="http://purl.org/dc/elements/1.1/"
   xmlns:cc="http://creativecommons.org/ns#"
   xmlns:rdf="http://www.w3.org/1999/02/22-rdf-syntax-ns#"
   xmlns:svg="http://www.w3.org/2000/svg"
   xmlns="http://www.w3.org/2000/svg"
   xmlns:sodipodi="http://sodipodi.sourceforge.net/DTD/sodipodi-0.dtd"
   xmlns:inkscape="http://www.inkscape.org/namespaces/inkscape"
   width="20"
   height="20"
   viewBox="0 0 20 20"
   version="1.1"
   id="svg31"
   inkscape:version="1.0.1 (1.0.1+r74)"
   sodipodi:docname="logoFacebook.svg">
  <defs
     id="defs25">
    <clipPath
       clipPathUnits="userSpaceOnUse"
       id="clipPath20">
      <path
         d="M 0,790.889 H 900 V 0 H 0 Z"
         id="path18" />
    </clipPath>
    <clipPath
       clipPathUnits="userSpaceOnUse"
       id="clipPath20-4">
      <path
         d="M 0,790.889 H 900 V 0 H 0 Z"
         id="path18-4" />
    </clipPath>
  </defs>
  <sodipodi:namedview
     id="base"
     pagecolor="#ffffff"
     bordercolor="#666666"
     borderopacity="1.0"
     inkscape:pageopacity="0.0"
     inkscape:pageshadow="2"
     inkscape:zoom="16"
     inkscape:cx="23.185953"
     inkscape:cy="10.417264"
     inkscape:document-units="px"
     inkscape:current-layer="layer1"
     inkscape:document-rotation="0"
     showgrid="false"
     units="px"
     inkscape:window-width="1528"
     inkscape:window-height="1136"
     inkscape:window-x="72"
     inkscape:window-y="27"
     inkscape:window-maximized="1"
     inkscape:snap-global="false" />
  <metadata
     id="metadata28">
    <rdf:RDF>
      <cc:Work
         rdf:about="">
        <dc:format>image/svg+xml</dc:format>
        <dc:type
           rdf:resource="http://purl.org/dc/dcmitype/StillImage" />
        <dc:title></dc:title>
      </cc:Work>
    </rdf:RDF>
  </metadata>
  <g
     inkscape:groupmode="layer"
     id="layer1"
     inkscape:label="Layer 1"
     style="display:inline">
    <path
       style="fill:#ffffff;stroke:#ffffff;stroke-width:0.0269935px;stroke-linecap:butt;stroke-linejoin:miter;stroke-opacity:1"
       d="M 8.3204946,9.708389 V 19.932762 H 4.9546166 1.5887386 C 0.91503229,19.904355 0.26704397,19.827949 0.14720158,18.765686 V 10.029442 1.7690091 C 0.02241863,0.37620315 0.74065195,0.16050537 1.5887386,0.12612242 h 8.5326404 4.26632 4.266322 c 0.9588,0.11758954 1.538638,0.55054198 1.330539,1.63919118 v 8.2567374 8.732548 c -0.194681,0.60165 -0.336169,1.249019 -1.330539,1.16338 H 14.678199 10.702378 V 9.6623268 h 2.028791 L 13.137744,8.1523322 H 10.708515 V 5.9124458 c 0.06698,-0.2944001 0.133974,-0.5887907 0.616,-0.61301 h 1.598236 V 3.3829459 H 10.545056 C 9.544078,3.5488553 8.6152174,3.8550023 8.3893555,5.5281835 V 8.1101522 H 6.854213 v 1.5964007 z"
       id="path1127"
       sodipodi:nodetypes="ccccccccccccccccccccccccccccccc" />
  </g>
</svg>
