<?xml version="1.0" encoding="UTF-8" standalone="no"?>
<svg
   xmlns:dc="http://purl.org/dc/elements/1.1/"
   xmlns:cc="http://creativecommons.org/ns#"
   xmlns:rdf="http://www.w3.org/1999/02/22-rdf-syntax-ns#"
   xmlns:svg="http://www.w3.org/2000/svg"
   xmlns="http://www.w3.org/2000/svg"
   xmlns:sodipodi="http://sodipodi.sourceforge.net/DTD/sodipodi-0.dtd"
   xmlns:inkscape="http://www.inkscape.org/namespaces/inkscape"
   version="1.1"
   id="svg41117"
   viewBox="0 0 200 154.81912"
   height="154.81912"
   width="200"
   preserveAspectRatio="xMidYMid"
   sodipodi:docname="PlayStation_logo.svg"
   inkscape:version="1.0.1 (1.0.1+r74)">
  <sodipodi:namedview
     pagecolor="#ffffff"
     bordercolor="#666666"
     borderopacity="1"
     objecttolerance="10"
     gridtolerance="10"
     guidetolerance="10"
     inkscape:pageopacity="0"
     inkscape:pageshadow="2"
     inkscape:window-width="1528"
     inkscape:window-height="1136"
     id="namedview7"
     showgrid="false"
     inkscape:zoom="4.7474756"
     inkscape:cx="100"
     inkscape:cy="77.409561"
     inkscape:window-x="72"
     inkscape:window-y="27"
     inkscape:window-maximized="1"
     inkscape:current-layer="svg41117" />
  <metadata
     id="metadata41126">
    <rdf:RDF>
      <cc:Work
         rdf:about="">
        <dc:format>image/svg+xml</dc:format>
        <dc:type
           rdf:resource="http://purl.org/dc/dcmitype/StillImage" />
        <dc:title></dc:title>
      </cc:Work>
    </rdf:RDF>
  </metadata>
  <defs
     id="defs41119">
    <style
       id="style41121">

      .cls-2 {
        fill: #ffffff;
      }
    </style>
  </defs>
  <path
     id="path-1"
     style="fill:#1f1f1f;fill-opacity:1;fill-rule:evenodd"
     d="m 75.037109,1 v 142.58398 l 32.251951,10.23438 V 34.234375 c 0,-5.603666 2.4997,-9.345423 6.5293,-8.054687 5.26187,1.461631 6.29687,6.626214 6.29687,12.234374 v 47.751954 c 20.10304,9.705228 35.92383,-0.0084 35.92383,-25.638672 0,-26.295861 -9.26,-37.966833 -36.57226,-47.34375 C 108.72718,9.5632434 88.749452,3.54549 75.037109,1 Z M 68.773438,87.1875 22.53125,103.62891 c 0,0 -11.189943,3.66982 -17.7695312,8.54492 -7.1192663,5.27986 -4.51960173,14.44537 11.0996092,18.84375 16.757035,5.52272 33.763011,6.6104 49.728516,4.00195 1.04338,-0.1754 2.1717,-0.35528 3.183594,-0.53515 V 117.71484 L 52.8125,123.50781 c -5.886999,2.11374 -14.539656,2.5592 -19.320312,0.99414 -4.776162,-1.56507 -3.872145,-4.55287 2.005859,-6.66211 l 33.275391,-11.9082 z m 81.675782,8.130859 c -3.79834,-0.02726 -7.50824,0.152293 -11.01953,0.539063 -14.04515,1.556074 -24.03321,5.091798 -24.03321,5.091798 l -1.99218,0.67383 v 19.3789 l 34.5664,-12.17383 c 5.8915,-2.11824 14.54025,-2.56761 19.31641,-0.99804 4.78515,1.56507 3.88114,4.54701 -2.00586,6.65625 l -51.87695,18.48242 v 18.67383 l 70.49218,-25.32031 c 0,0 9.4741,-3.47978 13.3418,-8.35938 3.8632,-4.87959 2.15,-11.96775 -13.06445,-16.77539 -10.12574,-3.838467 -22.32959,-5.787346 -33.72461,-5.869141 z m 35.82617,44.212891 c -0.0855,0.0634 -0.18495,0.11985 -0.29883,0.16602 0.008,0.0201 0.0221,0.0447 0.0293,0.0644 0.0884,-0.0207 0.17288,-0.0466 0.2207,-0.11719 0.0234,-0.0345 0.0323,-0.0755 0.0488,-0.11328 z m 2.00391,3.07422 c -0.0469,-0.005 -0.0864,-9.9e-4 -0.0957,0.0371 -0.005,0.0217 -0.005,0.0446 -0.01,0.0664 0.0564,-0.0196 0.11228,-0.0398 0.16797,-0.0605 -6e-5,-0.0124 -0.002,-0.0247 -0.002,-0.0371 -0.0212,-0.003 -0.0403,-0.004 -0.0605,-0.006 z m -7.27344,0.11328 v 0.002 c 0.002,-9.1e-4 0.004,-9.5e-4 0.006,-0.002 -0.002,6.2e-4 -0.004,-6.2e-4 -0.006,0 z m 4.2793,2.73633 c -0.024,0.0422 -0.005,0.002 -0.0449,0.0781 -0.009,0.017 0.0341,-0.0226 0.0391,-0.041 0.004,-0.0131 0.002,-0.0243 0.006,-0.0371 z m -5.29297,1.11719 c -0.0434,0.014 0.0546,0.073 0.082,0.10937 0.0304,0.0269 0.0617,0.0527 0.0918,0.0801 -1e-5,-0.0476 0,-0.095 0,-0.14258 -0.0565,-0.02 -0.11821,-0.0649 -0.17383,-0.0469 z m -0.31641,0.9082 c 0.0105,0.0396 0.009,0.0656 0.0234,0.10937 0.0192,0.0601 0.0202,-0.009 0.0156,-0.10546 -0.013,-0.001 -0.026,-0.002 -0.0391,-0.004 z m 5.79102,5.92187 c -2.7e-4,3e-4 0.002,0.004 0.002,0.004 0.005,9.3e-4 0.009,0.003 0.0137,0.004 -0.005,-0.003 -0.0104,-0.005 -0.0156,-0.008 z" />
</svg>
